<svg t="1678369817894" class="icon" viewBox="0 0 1158 1024" version="1.1" xmlns="http://www.w3.org/2000/svg" p-id="3759" width="200" height="200"><path d="M0 983.578947a40.421053 40.421053 0 0 0 40.421053 40.421053h1077.894736a40.421053 40.421053 0 0 0 40.421053-40.421053V262.736842H0z m728.589474-485.052631l57.195789-57.19579L957.237895 613.052632l-171.452632 171.52-57.195789-56.993685 114.526315-114.526315zM628.547368 446.787368l70.063158 40.421053-168.421052 291.705263-70.063158-40.421052z m-255.595789-5.456842L430.147368 498.526316l-114.526315 114.526316 114.526315 114.526315-57.195789 57.19579L201.498947 613.052632zM1118.315789 0H40.421053a40.421053 40.421053 0 0 0-40.421053 40.421053v181.894736h1158.736842V40.421053a40.421053 40.421053 0 0 0-40.421053-40.421053z" p-id="3760" fill="#ec679f"></path></svg>