<svg t="1678369723509" class="icon" viewBox="0 0 1024 1024" version="1.1" xmlns="http://www.w3.org/2000/svg" p-id="1884" width="200" height="200"><path d="M104.4 784.3H917v126.6H104.4z" fill="#1296db" p-id="1885"></path><path d="M939.5 933.5H81.9V761.8h857.6v171.7z m-812.6-45.1h767.5v-81.6H126.9v81.6z" fill="#1296db" p-id="1886"></path><path d="M903.8 959.7H119.4c-31 0-56.2-25.2-56.2-56.2V120.1c0-31 25.2-56.2 56.2-56.2h784.4c31 0 56.2 25.2 56.2 56.2v783.4c0 31-25.2 56.2-56.2 56.2z m-773-67.5h761.7V131.5H130.8v760.7z" fill="#1296db" p-id="1887"></path><path d="M299.8 308.9c-8.4 9.1-19.4 18-32.8 26.5-13.5 7.5-26.3 12.7-38 15.7l-6.4 1.6v60.5l10.8-3.1c20.4-5.8 38.5-14.5 54-25.7v220.8h60v-299h-44.9l-2.7 2.7zM510.7 518.1L465.4 384h-63.6l82.1 221.1h53.6L619.6 384H556zM744.8 306.2l-2.5 2.7c-8.4 9.2-19.6 18.1-32.7 26.4-13.5 7.5-26.4 12.8-38.2 15.8l-6.4 1.6v60.5l10.8-3.1c20.4-5.8 38.5-14.5 54-25.7v220.8h60v-299h-45z" fill="#1296db" p-id="1888"></path></svg>